mastitorrents.com
  
http://mastitorrents.com/forums/index.php
  
http://thepiratebay.se/user/HDvideos/0/7

Student of the Year (2012) - Hindi - CAM 

Format profile : Base Media / Version 2
Codec ID : mp42
Duration : 2h 6mn
Overall bit rate mode : Variable
Overall bit rate : 418 Kbps
Encoded date : UTC 2012-10-18 06:47:16
Tagged date : UTC 2012-10-18 06:47:16

Video
ID : 201
Format : AVC
Format/Info : Advanced Video Codec
Format profile : High@L3.0
Format settings, CABAC : Yes
Format settings, ReFrames : 5 frames
Codec ID : avc1
Codec ID/Info : Advanced Video Coding
Duration : 2h 6mn
Bit rate mode : Variable
Bit rate : 360 Kbps
Maximum bit rate : 1 295 Kbps
Width : 520 pixels
Height : 240 pixels
Display aspect ratio : 2.2:1
Frame rate mode : Constant
Frame rate : 25.000 fps
Color space : YUV
Chroma subsampling : 4:2:0
Bit depth : 8 bits
Scan type : Progressive
Bits/(Pixel*Frame) : 0.115
Stream size : 325 MiB (86%)
Writing library : x264 core 107
Encoding settings : cabac=1 / ref=5 / deblock=1:-1:1 / analyse=0x3:0x113 / me=hex / subme=6 / psy=1 / psy_rd=1.00:0.00 / mixed_ref=0 / me_range=16 / chroma_me=1 / trellis=0 / 8x8dct=1 / cqm=0 / deadzone=21,11 / fast_pskip=1 / chroma_qp_offset=-2 / threads=12 / sliced_threads=0 / nr=0 / decimate=1 / interlaced=0 / constrained_intra=0 / bframes=3 / b_pyramid=0 / b_adapt=1 / b_bias=0 / direct=3 / weightb=1 / open_gop=0 / weightp=2 / keyint=300 / keyint_min=25 / scenecut=40 / intra_refresh=0 / rc_lookahead=40 / rc=crf / mbtree=1 / crf=23.0 / qcomp=0.60 / qpmin=10 / qpmax=51 / qpstep=4 / vbv_maxrate=500 / vbv_bufsize=10000 / crf_max=0.0 / ip_ratio=1.41 / aq=1:1.00 / nal_hrd=none
Tagged date : UTC 2012-10-18 06:47:21

Audio
ID : 101
Format : AAC
Format/Info : Advanced Audio Codec
Format profile : LC
Codec ID : 40
Duration : 2h 6mn
Bit rate mode : Variable
Bit rate : 55.1 Kbps
Maximum bit rate : 72.6 Kbps
Channel(s) : 1 channel
Channel positions : Front: C
Sampling rate : 32.0 KHz
Compression mode : Lossy
Stream size : 49.7 MiB (13%)
Encoded date : UTC 2012-10-18 06:47:19
Tagged date : UTC 2012-10-18 06:47:21